<svg id="Layer_1" data-name="Layer 1" xmlns="http://www.w3.org/2000/svg" viewBox="0 0 67.58 65.73"><defs><style>.cls-1{fill:#3f1e00;}.cls-2{fill:#fcd394;}.cls-3{fill:#fcf2e2;}.cls-4{fill:#fefefe;}</style></defs><path class="cls-1" d="M60,85.91c-7.55,0-13.18-1-18.27-3.17-2.7-1.17-6.53-3.21-8.6-7.52a11.07,11.07,0,0,0-.93-1.48,10.67,10.67,0,0,1-1.63-3,49.63,49.63,0,0,1-2-9.38,28.24,28.24,0,0,1,2.46-14.78,33.49,33.49,0,0,1-2.45-9l-.33-1.87a39.48,39.48,0,0,1-.52-4.88c0-.63-.08-1.25-.14-1.87Q27.48,27,27.37,25a4.4,4.4,0,0,1,1.17-3.29A4.8,4.8,0,0,1,32,20.3a4.62,4.62,0,0,1,1.29.18A10.7,10.7,0,0,1,36.46,22c3,2.19,6.12,4.46,9.09,6.65l2.72,2,.54.41a52,52,0,0,1,11-2.2l1.88-.23a24.73,24.73,0,0,1,3.11-.2A30.12,30.12,0,0,1,75,30.32a2,2,0,0,0,.64.13c.23,0,.53-.05,1.21-.67s1.23-1.17,1.83-1.77a39.37,39.37,0,0,1,3-2.83c1.49-1.22,3.08-2.3,4.62-3.35l1.53-1.06a3.16,3.16,0,0,1,1.82-.59,3.55,3.55,0,0,1,2.7,1.41,4.41,4.41,0,0,1,1,2.43l.12,1.26c.19,2.13.39,4.34.41,6.55a21.32,21.32,0,0,1-.56,4.36l-.12.63c-.14.7-.32,1.37-.49,2a16.88,16.88,0,0,0-.53,2.49,4.35,4.35,0,0,0,.22.72,9.55,9.55,0,0,1,.37,1.32c.18,1,.36,2,.55,2.93.5,2.62,1,5.33,1.3,8.06a30.42,30.42,0,0,1-3.17,18,20.36,20.36,0,0,1-6.83,7.49A28.24,28.24,0,0,1,73,84.41c-1,.15-2,.32-3,.49a53.62,53.62,0,0,1-8.18,1ZM34.89,67.07c.16.38.31.75.46,1.13.37.94.73,1.83,1.15,2.66a6.87,6.87,0,0,0,.72,1.06,13.72,13.72,0,0,1,.9,1.32,10.71,10.71,0,0,0,6.5,5.19l1.48.44a26.21,26.21,0,0,0,5.12,1.2c3.34.31,6.56.47,9.58.47h0c.9,0,1.8,0,2.7,0A37.42,37.42,0,0,0,69,79.76c1-.19,2.1-.38,3.17-.53a25,25,0,0,0,9.94-3.92c3-1.91,5.06-4.78,6.4-9,.14-.59.3-1.18.46-1.77A17.88,17.88,0,0,0,89.68,61a56.23,56.23,0,0,0-.86-13.24l-.06-.33a7,7,0,0,0-.38-1.59,9.46,9.46,0,0,1-.81-6.43C88.69,34.81,89.49,31,88.71,27a5.8,5.8,0,0,1-.09-.79A41.67,41.67,0,0,0,84.87,29c-1.35,1.15-2.61,2.39-3.94,3.69l-1.05,1a2.57,2.57,0,0,1-.5,1.69,2.34,2.34,0,0,1-1.87.9A4.16,4.16,0,0,1,76,35.94l-.1,0a30.37,30.37,0,0,0-10.58-2.42h-.42a48.85,48.85,0,0,0-16.48,2.92,7.94,7.94,0,0,1-1.25.32l-.35.06a1.58,1.58,0,0,1-.43.05,2,2,0,0,1-1.77-1.08l-.25-.47a2,2,0,0,1-.19-1.3l-.68-.5c-3.57-2.6-7.09-5.18-10.62-7.74a3.38,3.38,0,0,0-.58-.31h0c.11.93.21,1.85.31,2.78a80.24,80.24,0,0,0,2.26,13.64c.12.39.3.82.49,1.27s.36.85.51,1.29A4.26,4.26,0,0,1,36,46.88c-.22.87-.5,1.7-.78,2.5l-.32.93A27.9,27.9,0,0,0,34.89,67.07Z" transform="translate(-27.36 -20.18)"/><path class="cls-1" d="M48.46,33.32c4.33-1.75,9-2.12,13.53-2.72a26.62,26.62,0,0,1,12.38,1.6,3.41,3.41,0,0,0,3.87-1c1.62-1.48,3.09-3.14,4.78-4.52,1.92-1.56,4-2.9,6-4.32.77-.53,1.39-.06,1.86.48a2.45,2.45,0,0,1,.56,1.3c.22,2.55.5,5.1.52,7.65a23.39,23.39,0,0,1-.65,4.6c-.3,1.56-.87,3.09-1,4.66a10.26,10.26,0,0,0,.61,2.61c.65,3.61,1.46,7.2,1.83,10.84A28.63,28.63,0,0,1,89.8,71.41a18.28,18.28,0,0,1-6.18,6.77A26.46,26.46,0,0,1,72.7,82.43c-3.63.55-7.26,1.39-10.9,1.46-6.55.12-13.12-.35-19.26-3-3.15-1.36-6-3.23-7.58-6.54-.71-1.47-2-2.71-2.46-4.22a47.16,47.16,0,0,1-1.89-9,26.12,26.12,0,0,1,2.31-13.8A1.79,1.79,0,0,0,33,46c-1.7-3.38-2.1-7.1-2.78-10.73-.39-2.15-.44-4.37-.62-6.56-.11-1.26-.21-2.52-.28-3.78a2.58,2.58,0,0,1,3.37-2.53,8.65,8.65,0,0,1,2.57,1.21c4,2.85,7.86,5.75,11.78,8.64C47.52,32.57,47.94,32.91,48.46,33.32Zm42,33.49a36.81,36.81,0,0,0,1.26-5.68,59,59,0,0,0-.89-13.71,9.51,9.51,0,0,0-.6-2.43,7.54,7.54,0,0,1-.68-5.1c1.07-4.36,2.06-8.71,1.16-13.25-.13-.69,0-1.45-.13-2.13-.31-1.33-.71-1.5-1.82-.75a55.43,55.43,0,0,0-5.14,3.71c-2,1.65-3.72,3.49-5.56,5.27-.12.12-.27.35-.23.49.38,1.48-.45,1.1-1.22.81-3.79-1.45-7.7-2.65-11.76-2.55a51.06,51.06,0,0,0-17.15,3.05,9.25,9.25,0,0,1-1.31.3l-.25-.47,1-.66C42.72,30.48,38.38,27.3,34,24.13a5.46,5.46,0,0,0-1-.52c-1.72-.76-3,.14-2.82,2,.65,5.63,1.06,11.31,2.64,16.79.27.91.72,1.76,1,2.66a2.56,2.56,0,0,1,.18,1.32c-.29,1.12-.7,2.21-1.07,3.31a30.09,30.09,0,0,0,0,18c.56,1.35,1.06,2.73,1.71,4,.45.89,1.18,1.62,1.68,2.48a12.75,12.75,0,0,0,7.67,6.11,39,39,0,0,0,7,1.72,103,103,0,0,0,12.54.43c3-.1,5.9-.88,8.86-1.29A27,27,0,0,0,83.15,77C87,74.57,89.11,71,90.42,66.81Z" transform="translate(-27.36 -20.18)"/><path class="cls-2" d="M33,67.73a30.09,30.09,0,0,1,0-18c.37-1.1.78-2.19,1.07-3.31a2.56,2.56,0,0,0-.18-1.32c-.31-.9-.76-1.75-1-2.66-1.58-5.48-2-11.16-2.64-16.79-.22-1.86,1.1-2.76,2.82-2a5.46,5.46,0,0,1,1,.52c4.36,3.17,8.7,6.35,13.13,9.58l-1,.66.25.47a9.25,9.25,0,0,0,1.31-.3,51.06,51.06,0,0,1,17.15-3.05c4.06-.1,8,1.1,11.76,2.55.77.29,1.6.67,1.22-.81,0-.14.11-.37.23-.49,1.84-1.78,3.61-3.62,5.56-5.27a55.43,55.43,0,0,1,5.14-3.71c1.11-.75,1.51-.58,1.82.75.16.68,0,1.44.13,2.13.9,4.54-.09,8.89-1.16,13.25a7.54,7.54,0,0,0,.68,5.1,9.51,9.51,0,0,1,.6,2.43,59,59,0,0,1,.89,13.71,36.81,36.81,0,0,1-1.26,5.68,7.09,7.09,0,0,1-.74-.59c-1.15-1.19-2.25-2.44-3.45-3.59-1.83-1.78-3.94-3.35-6.52-3.43a25.09,25.09,0,0,0-7,.81,26.12,26.12,0,0,0-9.14,4.79,5.08,5.08,0,0,1-1.39.49,9.14,9.14,0,0,1,.54-1c.57-.81,1.23-1.57,1.76-2.41.81-1.28.47-2-1-2.21a17.57,17.57,0,0,0-3.69-.19,8.49,8.49,0,0,0-2.67.89c-.26.12-.56.75-.46.94.64,1.2,1.39,2.35,2.1,3.51a5.37,5.37,0,0,1-1.29-.15c-.48-.18-.87-.59-1.34-.77-4.9-1.85-9.83-2.7-15-1-3.06,1-5.69,2.37-7.17,5.28Zm2.6-27.6c1.89-1.68,3.69-3.36,5.58-4.94.66-.54.81-.87.14-1.47-2.45-2.2-4.87-4.42-7.31-6.64C32.64,29.48,33.57,37.32,35.6,40.13ZM80,35a8.67,8.67,0,0,1,5.34,2.67c1.63,1.52,2.17,1.37,2.78-.77a1.85,1.85,0,0,1,0-.23c.82-2.75.22-5.53.23-8.3,0-1.31-.54-1.59-1.64-.83A19,19,0,0,0,80,35ZM76.59,52c0-1.85-1.62-3-3-2.42a8.61,8.61,0,0,0-4.9,5c-.33.87.11,1.45,1,1.16a53.77,53.77,0,0,0,5.75-2.29C76,53.12,76.33,52.29,76.59,52ZM49.91,56.49c1.11-.27,1.64-.9,1.21-1.7a9.13,9.13,0,0,0-3.82-4.17c-1.23-.63-2.14-.5-2.76.41-1,1.46-1.06,2.56.25,3.33A39.71,39.71,0,0,0,49.91,56.49Zm21.1-12c-.25-.45-.4-1-.77-1.34a3.13,3.13,0,0,0-4.44.76,2.23,2.23,0,0,0,0,2.79A3.3,3.3,0,0,0,67.57,48C69,48.1,70.83,46,71,44.47ZM54.52,46c0-1.54-.89-2.57-2.2-2.55a3.25,3.25,0,0,0-3,2.83,2.66,2.66,0,0,0,2.88,2.41C53.66,48.71,54.51,47.73,54.52,46Z" transform="translate(-27.36 -20.18)"/><path class="cls-3" d="M33,67.73l.85.4C35.33,65.22,38,63.84,41,62.85c5.19-1.68,10.12-.83,15,1,.47.18.86.59,1.34.77a5.37,5.37,0,0,0,1.29.15,3.53,3.53,0,0,1,1.72,3.33c-.08,2.37-2.53,5.8-5.49,6.17A7.11,7.11,0,0,1,47.18,70c-.42-.92-.42-.92-1.45-.52a7.47,7.47,0,0,0,6.44,6.06c4.42.63,7.55-1.18,9.14-5.63a4.18,4.18,0,0,0,.38.79c1,1,1.73,2.47,2.91,3,2.64,1.23,5.47,1.92,7.89-.68A.24.24,0,0,1,72.6,73c2.14-.88,2.72-2.64,2.61-4.74a4.18,4.18,0,0,0-.46-1.21c-.24.33-.62.64-.69,1a4.68,4.68,0,0,1-2.22,3.5A11.74,11.74,0,0,1,69.22,73,4.81,4.81,0,0,1,65,72.62a5.77,5.77,0,0,1-2.33-3.78c-.2-1.18-.35-2.37-.52-3.55a5.08,5.08,0,0,0,1.39-.49A26.12,26.12,0,0,1,72.66,60a25.09,25.09,0,0,1,7-.81c2.58.08,4.69,1.65,6.52,3.43,1.2,1.15,2.3,2.4,3.45,3.59a7.09,7.09,0,0,0,.74.59C89.11,71,87,74.57,83.15,77a27,27,0,0,1-10.72,4.21c-3,.41-5.9,1.19-8.86,1.29A103,103,0,0,1,51,82.07a39,39,0,0,1-7-1.72,12.75,12.75,0,0,1-7.67-6.11c-.5-.86-1.23-1.59-1.68-2.48C34.06,70.46,33.56,69.08,33,67.73Z" transform="translate(-27.36 -20.18)"/><path class="cls-1" d="M62.13,65.29c.17,1.18.32,2.37.52,3.55A5.77,5.77,0,0,0,65,72.62a4.81,4.81,0,0,0,4.24.38,11.74,11.74,0,0,0,2.62-1.42,4.68,4.68,0,0,0,2.22-3.5c.07-.37.45-.68.69-1a4.18,4.18,0,0,1,.46,1.21c.11,2.1-.75,3.31-2.61,4.74a.24.24,0,0,0-.11.06c-2.76,2.09-5.25,1.91-7.89.68-1.18-.55-2-2-2.91-3a4.18,4.18,0,0,1-.38-.79c-1.59,4.45-4.72,6.26-9.14,5.63a7.47,7.47,0,0,1-6.44-6.06c1-.4,1-.4,1.45.52a7.11,7.11,0,0,0,7.72,4.25c3-.37,5.41-3.8,5.49-6.17a3.53,3.53,0,0,0-1.72-3.33c-.71-1.16-1.46-2.31-2.1-3.51-.1-.19.2-.82.46-.94a8.49,8.49,0,0,1,2.67-.89,17.57,17.57,0,0,1,3.69.19c1.51.19,1.85.93,1,2.21-.53.84-1.19,1.6-1.76,2.41A9.14,9.14,0,0,0,62.13,65.29Z" transform="translate(-27.36 -20.18)"/><path class="cls-4" d="M35.6,40.13c-2-2.81-3-10.65-1.59-13.05,2.44,2.22,4.86,4.44,7.31,6.64.67.6.52.93-.14,1.47C39.29,36.77,37.49,38.45,35.6,40.13Z" transform="translate(-27.36 -20.18)"/><path class="cls-4" d="M80,35a19,19,0,0,1,6.75-7.46c1.1-.76,1.65-.48,1.64.83,0,2.77.59,5.55-.23,8.3a1.85,1.85,0,0,0,0,.23c-.61,2.14-1.15,2.29-2.78.77A8.67,8.67,0,0,0,80,35Z" transform="translate(-27.36 -20.18)"/><path class="cls-1" d="M76.59,52c-.26.33-.58,1.16-1.16,1.44a53.77,53.77,0,0,1-5.75,2.29c-.86.29-1.3-.29-1-1.16a8.61,8.61,0,0,1,4.9-5C75,49,76.54,50.11,76.59,52Z" transform="translate(-27.36 -20.18)"/><path class="cls-1" d="M49.91,56.49a39.71,39.71,0,0,1-5.12-2.13c-1.31-.77-1.25-1.87-.25-3.33.62-.91,1.53-1,2.76-.41a9.13,9.13,0,0,1,3.82,4.17C51.55,55.59,51,56.22,49.91,56.49Z" transform="translate(-27.36 -20.18)"/><path class="cls-3" d="M71,44.47C70.83,46,69,48.1,67.57,48a3.3,3.3,0,0,1-1.8-1.27,2.23,2.23,0,0,1,0-2.79,3.13,3.13,0,0,1,4.44-.76C70.61,43.42,70.76,44,71,44.47Z" transform="translate(-27.36 -20.18)"/><path class="cls-3" d="M54.52,46c0,1.69-.86,2.67-2.36,2.69a2.66,2.66,0,0,1-2.88-2.41,3.25,3.25,0,0,1,3-2.83C53.63,43.47,54.52,44.5,54.52,46Z" transform="translate(-27.36 -20.18)"/></svg>